<?xml version="1.0" encoding="UTF-8"?>
<svg width="256px" height="256px" viewBox="0 0 256 256" version="1.1" xmlns="http://www.w3.org/2000/svg" xmlns:xlink="http://www.w3.org/1999/xlink">
    <!-- Generator: Sketch 45.2 (43514) - http://www.bohemiancoding.com/sketch -->
    <title>logo/RGB/bug/blockstack-bug-rounded</title>
    <desc>Created with Sketch.</desc>
    <defs>
        <path d="M255.999896,175.266043 C255.999896,175.266043 256.0619,201.947848 253.156954,213.512538 C250.252008,225.077229 244.917648,233.14024 239.006498,239.050198 C233.069097,244.986404 225.203816,250.384159 213.214756,253.196402 C201.225946,256.008644 175.212189,255.959149 175.212189,255.959149 L80.7060562,255.999895 C80.7060562,255.999895 54.0197538,256.062139 42.4534726,253.157655 C30.8869413,250.252921 22.8226466,244.91941 16.9117474,239.009202 C10.9743464,233.072746 5.57598175,225.208716 2.76329177,213.221815 C-0.0493982042,201.234913 0.000105139396,175.225297 0.000105139396,175.225297 L0.000105139396,80.7339557 C0.000105139396,80.7339557 -0.0621490654,54.0521507 2.84304716,42.4874605 C5.74799337,30.9227703 11.0823537,22.8600091 16.9935029,16.9500507 C22.9309039,11.0135947 30.7961852,5.6158393 42.7849949,2.80359701 C54.7740547,-0.0086452856 80.7875617,0.0408501788 80.7875617,0.0408501788 L175.293945,0.000103912647 C175.293945,0.000103912647 201.980247,-0.0618904064 213.546529,2.84259344 C225.11306,5.74707728 233.177105,11.0805885 239.088004,16.9907969 C245.025405,22.9272529 250.424019,30.7912823 253.236709,42.7781839 C256.049399,54.7653354 255.999896,80.774702 255.999896,80.774702 L255.999896,175.266043 Z" id="path-1"></path>
    </defs>
    <g id="Page-1" stroke="none" stroke-width="1" fill="none" fill-rule="evenodd">
        <g id="logo/RGB/bug/blockstack-bug-rounded">
            <g id="blockstack-bug-rounded">
                <mask id="mask-2" fill="white">
                    <use xlink:href="#path-1"></use>
                </mask>
                <use id="Fill-1" fill="#270F34" xlink:href="#path-1"></use>
                <path d="M97.6544976,147.660857 C103.548886,151.334856 107.477266,157.843394 107.477266,165.282242 C107.477266,176.76576 98.1378229,186.076131 86.6179648,186.076131 C85.2115973,186.076131 83.84157,185.93077 82.515151,185.66912 C85.7203607,187.667834 89.4924783,188.841624 93.5516838,188.841624 C105.075176,188.841624 114.410985,179.531253 114.410985,168.047735 C114.410985,157.963317 107.208348,149.561452 97.6544976,147.660857" id="Fill-6" fill="#2C96FF" mask="url(#mask-2)"></path>
                <path d="M82.515151,185.668757 C82.5224191,185.668757 82.5333211,185.668757 82.5405892,185.672391 C72.9722024,183.782698 65.7586635,175.373565 65.7586635,165.281879 C65.7586635,162.171154 66.4636643,159.231228 67.6883306,156.57839 C62.3317783,160.343239 58.8213105,166.546519 58.8213105,173.574723 C58.8213105,185.061875 68.1643878,194.368612 79.6842458,194.368612 C85.1498189,194.368612 90.1102625,192.253609 93.8315037,188.826724 C93.7370191,188.826724 93.6461684,188.84126 93.5516838,188.84126 C89.4924783,188.84126 85.7203607,187.66747 82.515151,185.668757" id="Fill-16" fill="#E91E63" mask="url(#mask-2)"></path>
                <path d="M86.6183007,186.207628 C98.1385449,186.207628 107.478301,176.867655 107.478301,165.347627 C107.478301,153.827599 98.1385449,144.487626 86.6183007,144.487626 C75.0980565,144.487626 65.7583001,153.827599 65.7583001,165.347627 C65.7583001,176.867655 75.0980565,186.207628 86.6183007,186.207628" id="Fill-18" fill="#FEFEFE" mask="url(#mask-2)"></path>
                <path d="M97.6544976,64.4863915 C103.548886,68.1603904 107.477266,74.6689285 107.477266,82.1077769 C107.477266,93.5912947 98.1378229,102.901666 86.6179648,102.901666 C85.2115973,102.901666 83.84157,102.759939 82.515151,102.494655 C85.7203607,104.493369 89.4924783,105.667158 93.5516838,105.667158 C105.075176,105.667158 114.410985,96.3567874 114.410985,84.8732696 C114.410985,74.7888513 107.208348,66.3869864 97.6544976,64.4863915" id="Fill-20" fill="#2C96FF" mask="url(#mask-2)"></path>
                <path d="M82.515151,102.494655 C82.5224191,102.494655 82.5333211,102.494655 82.5405892,102.498289 C72.9722024,100.608596 65.7586635,92.1994632 65.7586635,82.1077769 C65.7586635,78.9970518 66.4636643,76.0571259 67.6883306,73.4079219 C62.3317783,77.1691374 58.8213105,83.3724174 58.8213105,90.400621 C58.8213105,101.887773 68.1643878,111.19451 79.6842458,111.19451 C85.1498189,111.19451 90.1102625,109.083142 93.8315037,105.652622 C93.7370191,105.652622 93.6461684,105.667158 93.5516838,105.667158 C89.4924783,105.667158 85.7203607,104.493369 82.515151,102.494655" id="Fill-26" fill="#E91E63" mask="url(#mask-2)"></path>
                <path d="M86.6183007,103.036796 C98.1385449,103.036796 107.478301,93.6960079 107.478301,82.1749729 C107.478301,70.6539378 98.1385449,61.3167952 86.6183007,61.3167952 C75.0980565,61.3167952 65.7583001,70.6539378 65.7583001,82.1749729 C65.7583001,93.6960079 75.0980565,103.036796 86.6183007,103.036796" id="Fill-34" fill="#FEFEFE" mask="url(#mask-2)"></path>
                <path d="M181.096791,64.4863915 C186.991178,68.1603904 190.923193,74.6689285 190.923193,82.1077769 C190.923193,93.5912947 181.580116,102.901666 170.060258,102.901666 C168.657524,102.901666 167.283863,102.759939 165.957444,102.494655 C169.162654,104.493369 172.934771,105.667158 176.993977,105.667158 C188.517469,105.667158 197.856912,96.3567874 197.856912,84.8732696 C197.856912,74.7888513 190.650641,66.3869864 181.096791,64.4863915" id="Fill-36" fill="#2C96FF" mask="url(#mask-2)"></path>
                <path d="M165.957444,102.494655 C165.964712,102.494655 165.975614,102.494655 165.986516,102.498289 C156.418129,100.608596 149.200956,92.1994632 149.200956,82.1077769 C149.200956,78.9970518 149.905957,76.0571259 151.134258,73.4079219 C145.774071,77.1691374 142.263603,83.3724174 142.263603,90.400621 C142.263603,101.887773 151.606681,111.19451 163.126539,111.19451 C168.595746,111.19451 173.552555,109.083142 177.273797,105.652622 C177.179312,105.652622 177.088461,105.667158 176.993977,105.667158 C172.934771,105.667158 169.162654,104.493369 165.957444,102.494655" id="Fill-40" fill="#E91E63" mask="url(#mask-2)"></path>
                <path d="M170.058777,103.036796 C181.578018,103.036796 190.920594,93.6960079 190.920594,82.1749729 C190.920594,70.6539378 181.578018,61.3167952 170.058777,61.3167952 C158.539536,61.3167952 149.200593,70.6539378 149.200593,82.1749729 C149.200593,93.6960079 158.539536,103.036796 170.058777,103.036796" id="Fill-50" fill="#FEFEFE" mask="url(#mask-2)"></path>
                <path d="M181.096791,147.660857 C186.991178,151.334856 190.923193,157.843394 190.923193,165.282242 C190.923193,176.76576 181.580116,186.076131 170.060258,186.076131 C168.657524,186.076131 167.283863,185.93077 165.957444,185.66912 C169.162654,187.667834 172.934771,188.841624 176.993977,188.841624 C188.517469,188.841624 197.856912,179.531253 197.856912,168.047735 C197.856912,157.963317 190.650641,149.561452 181.096791,147.660857" id="Fill-52" fill="#2C96FF" mask="url(#mask-2)"></path>
                <path d="M165.957444,185.668757 C165.964712,185.668757 165.975614,185.668757 165.986516,185.672391 C156.418129,183.782698 149.200956,175.373565 149.200956,165.281879 C149.200956,162.171154 149.905957,159.231228 151.134258,156.57839 C145.774071,160.343239 142.263603,166.546519 142.263603,173.574723 C142.263603,185.061875 151.606681,194.368612 163.126539,194.368612 C168.595746,194.368612 173.552555,192.253609 177.273797,188.826724 C177.179312,188.826724 177.088461,188.84126 176.993977,188.84126 C172.934771,188.84126 169.162654,187.66747 165.957444,185.668757" id="Fill-62" fill="#E91E63" mask="url(#mask-2)"></path>
                <path d="M170.058777,186.207628 C181.578018,186.207628 190.920594,176.867655 190.920594,165.347627 C190.920594,153.827599 181.578018,144.487626 170.058777,144.487626 C158.539536,144.487626 149.200593,153.827599 149.200593,165.347627 C149.200593,176.867655 158.539536,186.207628 170.058777,186.207628" id="Fill-64" fill="#FEFEFE" mask="url(#mask-2)"></path>
            </g>
        </g>
    </g>
</svg>